<mxfile host="app.diagrams.net" agent="Mozilla/5.0 (Macintosh; Intel Mac OS X 10_15_7) AppleWebKit/537.36 (KHTML, like Gecko) Chrome/126.0.0.0 Safari/537.36" version="24.7.6" pages="2">
  <diagram id="C5RBs43oDa-KdzZeNtuy" name="Page-1">
    <mxGraphModel dx="954" dy="656" grid="0" gridSize="10" guides="1" tooltips="1" connect="1" arrows="1" fold="1" page="1" pageScale="1" pageWidth="3300" pageHeight="4681" math="0" shadow="0">
      <root>
        <mxCell id="WIyWlLk6GJQsqaUBKTNV-0" />
        <mxCell id="WIyWlLk6GJQsqaUBKTNV-1" parent="WIyWlLk6GJQsqaUBKTNV-0" />
        <mxCell id="XLnG18G3E1F2Vg3VbiFq-2" value="" style="edgeStyle=none;curved=1;rounded=0;orthogonalLoop=1;jettySize=auto;html=1;fontSize=12;startSize=8;endSize=8;" edge="1" parent="WIyWlLk6GJQsqaUBKTNV-1" source="XLnG18G3E1F2Vg3VbiFq-0" target="XLnG18G3E1F2Vg3VbiFq-1">
          <mxGeometry relative="1" as="geometry" />
        </mxCell>
        <mxCell id="XLnG18G3E1F2Vg3VbiFq-0" value="开始" style="rounded=1;whiteSpace=wrap;html=1;" vertex="1" parent="WIyWlLk6GJQsqaUBKTNV-1">
          <mxGeometry x="281" y="82" width="120" height="60" as="geometry" />
        </mxCell>
        <mxCell id="XLnG18G3E1F2Vg3VbiFq-4" value="" style="edgeStyle=none;curved=1;rounded=0;orthogonalLoop=1;jettySize=auto;html=1;fontSize=12;startSize=8;endSize=8;" edge="1" parent="WIyWlLk6GJQsqaUBKTNV-1" source="XLnG18G3E1F2Vg3VbiFq-1" target="XLnG18G3E1F2Vg3VbiFq-3">
          <mxGeometry relative="1" as="geometry" />
        </mxCell>
        <mxCell id="XLnG18G3E1F2Vg3VbiFq-1" value="查询合约狂欢派对活动" style="whiteSpace=wrap;html=1;rounded=1;" vertex="1" parent="WIyWlLk6GJQsqaUBKTNV-1">
          <mxGeometry x="281" y="262" width="120" height="60" as="geometry" />
        </mxCell>
        <mxCell id="XLnG18G3E1F2Vg3VbiFq-6" value="" style="edgeStyle=none;curved=1;rounded=0;orthogonalLoop=1;jettySize=auto;html=1;fontSize=12;startSize=8;endSize=8;" edge="1" parent="WIyWlLk6GJQsqaUBKTNV-1" source="XLnG18G3E1F2Vg3VbiFq-3" target="XLnG18G3E1F2Vg3VbiFq-5">
          <mxGeometry relative="1" as="geometry" />
        </mxCell>
        <mxCell id="XLnG18G3E1F2Vg3VbiFq-11" value="" style="edgeStyle=none;curved=1;rounded=0;orthogonalLoop=1;jettySize=auto;html=1;fontSize=12;startSize=8;endSize=8;" edge="1" parent="WIyWlLk6GJQsqaUBKTNV-1" source="XLnG18G3E1F2Vg3VbiFq-3" target="XLnG18G3E1F2Vg3VbiFq-10">
          <mxGeometry relative="1" as="geometry" />
        </mxCell>
        <mxCell id="XLnG18G3E1F2Vg3VbiFq-3" value="是否存在" style="rhombus;whiteSpace=wrap;html=1;rounded=1;" vertex="1" parent="WIyWlLk6GJQsqaUBKTNV-1">
          <mxGeometry x="301" y="432" width="80" height="80" as="geometry" />
        </mxCell>
        <mxCell id="XLnG18G3E1F2Vg3VbiFq-9" value="" style="edgeStyle=none;curved=1;rounded=0;orthogonalLoop=1;jettySize=auto;html=1;fontSize=12;startSize=8;endSize=8;" edge="1" parent="WIyWlLk6GJQsqaUBKTNV-1" source="XLnG18G3E1F2Vg3VbiFq-5" target="XLnG18G3E1F2Vg3VbiFq-8">
          <mxGeometry relative="1" as="geometry" />
        </mxCell>
        <mxCell id="XLnG18G3E1F2Vg3VbiFq-5" value="执行合约狂欢月活动" style="whiteSpace=wrap;html=1;rounded=1;" vertex="1" parent="WIyWlLk6GJQsqaUBKTNV-1">
          <mxGeometry x="481" y="442" width="120" height="60" as="geometry" />
        </mxCell>
        <mxCell id="XLnG18G3E1F2Vg3VbiFq-7" value="否" style="text;html=1;align=center;verticalAlign=middle;resizable=0;points=[];autosize=1;strokeColor=none;fillColor=none;fontSize=16;" vertex="1" parent="WIyWlLk6GJQsqaUBKTNV-1">
          <mxGeometry x="409.5" y="442.5" width="34" height="31" as="geometry" />
        </mxCell>
        <mxCell id="XLnG18G3E1F2Vg3VbiFq-8" value="结束" style="whiteSpace=wrap;html=1;rounded=1;" vertex="1" parent="WIyWlLk6GJQsqaUBKTNV-1">
          <mxGeometry x="721" y="442" width="120" height="60" as="geometry" />
        </mxCell>
        <mxCell id="XLnG18G3E1F2Vg3VbiFq-13" value="" style="edgeStyle=none;curved=1;rounded=0;orthogonalLoop=1;jettySize=auto;html=1;fontSize=12;startSize=8;endSize=8;" edge="1" parent="WIyWlLk6GJQsqaUBKTNV-1" source="XLnG18G3E1F2Vg3VbiFq-10" target="XLnG18G3E1F2Vg3VbiFq-12">
          <mxGeometry relative="1" as="geometry" />
        </mxCell>
        <mxCell id="XLnG18G3E1F2Vg3VbiFq-10" value="查询用户参与的活动" style="whiteSpace=wrap;html=1;rounded=1;" vertex="1" parent="WIyWlLk6GJQsqaUBKTNV-1">
          <mxGeometry x="281" y="642" width="120" height="60" as="geometry" />
        </mxCell>
        <mxCell id="XLnG18G3E1F2Vg3VbiFq-15" value="" style="edgeStyle=none;curved=1;rounded=0;orthogonalLoop=1;jettySize=auto;html=1;fontSize=12;startSize=8;endSize=8;" edge="1" parent="WIyWlLk6GJQsqaUBKTNV-1" source="XLnG18G3E1F2Vg3VbiFq-12" target="XLnG18G3E1F2Vg3VbiFq-14">
          <mxGeometry relative="1" as="geometry" />
        </mxCell>
        <mxCell id="XLnG18G3E1F2Vg3VbiFq-22" value="" style="edgeStyle=none;curved=1;rounded=0;orthogonalLoop=1;jettySize=auto;html=1;fontSize=12;startSize=8;endSize=8;" edge="1" parent="WIyWlLk6GJQsqaUBKTNV-1" source="XLnG18G3E1F2Vg3VbiFq-12" target="XLnG18G3E1F2Vg3VbiFq-21">
          <mxGeometry relative="1" as="geometry" />
        </mxCell>
        <mxCell id="XLnG18G3E1F2Vg3VbiFq-12" value="是否存在" style="rhombus;whiteSpace=wrap;html=1;rounded=1;" vertex="1" parent="WIyWlLk6GJQsqaUBKTNV-1">
          <mxGeometry x="301" y="812" width="80" height="80" as="geometry" />
        </mxCell>
        <mxCell id="XLnG18G3E1F2Vg3VbiFq-18" value="" style="edgeStyle=none;curved=1;rounded=0;orthogonalLoop=1;jettySize=auto;html=1;fontSize=12;startSize=8;endSize=8;" edge="1" parent="WIyWlLk6GJQsqaUBKTNV-1" source="XLnG18G3E1F2Vg3VbiFq-14" target="XLnG18G3E1F2Vg3VbiFq-17">
          <mxGeometry relative="1" as="geometry" />
        </mxCell>
        <mxCell id="XLnG18G3E1F2Vg3VbiFq-14" value="提示用户不在白名单里" style="whiteSpace=wrap;html=1;rounded=1;" vertex="1" parent="WIyWlLk6GJQsqaUBKTNV-1">
          <mxGeometry x="481" y="822" width="120" height="60" as="geometry" />
        </mxCell>
        <mxCell id="XLnG18G3E1F2Vg3VbiFq-16" value="否" style="text;html=1;align=center;verticalAlign=middle;resizable=0;points=[];autosize=1;strokeColor=none;fillColor=none;fontSize=16;" vertex="1" parent="WIyWlLk6GJQsqaUBKTNV-1">
          <mxGeometry x="392.5" y="823.5" width="34" height="31" as="geometry" />
        </mxCell>
        <mxCell id="XLnG18G3E1F2Vg3VbiFq-17" value="结束" style="whiteSpace=wrap;html=1;rounded=1;" vertex="1" parent="WIyWlLk6GJQsqaUBKTNV-1">
          <mxGeometry x="721" y="822" width="120" height="60" as="geometry" />
        </mxCell>
        <mxCell id="XLnG18G3E1F2Vg3VbiFq-24" value="" style="edgeStyle=none;curved=1;rounded=0;orthogonalLoop=1;jettySize=auto;html=1;fontSize=12;startSize=8;endSize=8;" edge="1" parent="WIyWlLk6GJQsqaUBKTNV-1" source="XLnG18G3E1F2Vg3VbiFq-21" target="XLnG18G3E1F2Vg3VbiFq-23">
          <mxGeometry relative="1" as="geometry" />
        </mxCell>
        <mxCell id="XLnG18G3E1F2Vg3VbiFq-31" value="" style="edgeStyle=none;curved=1;rounded=0;orthogonalLoop=1;jettySize=auto;html=1;fontSize=12;startSize=8;endSize=8;" edge="1" parent="WIyWlLk6GJQsqaUBKTNV-1" source="XLnG18G3E1F2Vg3VbiFq-21" target="XLnG18G3E1F2Vg3VbiFq-30">
          <mxGeometry relative="1" as="geometry" />
        </mxCell>
        <mxCell id="XLnG18G3E1F2Vg3VbiFq-21" value="活动是否进行中" style="rhombus;whiteSpace=wrap;html=1;rounded=1;" vertex="1" parent="WIyWlLk6GJQsqaUBKTNV-1">
          <mxGeometry x="301" y="1012" width="80" height="80" as="geometry" />
        </mxCell>
        <mxCell id="XLnG18G3E1F2Vg3VbiFq-27" value="" style="edgeStyle=none;curved=1;rounded=0;orthogonalLoop=1;jettySize=auto;html=1;fontSize=12;startSize=8;endSize=8;" edge="1" parent="WIyWlLk6GJQsqaUBKTNV-1" source="XLnG18G3E1F2Vg3VbiFq-23" target="XLnG18G3E1F2Vg3VbiFq-26">
          <mxGeometry relative="1" as="geometry" />
        </mxCell>
        <mxCell id="XLnG18G3E1F2Vg3VbiFq-23" value="提示活动不在有效期" style="whiteSpace=wrap;html=1;rounded=1;" vertex="1" parent="WIyWlLk6GJQsqaUBKTNV-1">
          <mxGeometry x="481" y="1022" width="120" height="60" as="geometry" />
        </mxCell>
        <mxCell id="XLnG18G3E1F2Vg3VbiFq-25" value="否" style="text;html=1;align=center;verticalAlign=middle;resizable=0;points=[];autosize=1;strokeColor=none;fillColor=none;fontSize=16;" vertex="1" parent="WIyWlLk6GJQsqaUBKTNV-1">
          <mxGeometry x="398.5" y="1018.5" width="34" height="31" as="geometry" />
        </mxCell>
        <mxCell id="XLnG18G3E1F2Vg3VbiFq-26" value="结束" style="whiteSpace=wrap;html=1;rounded=1;" vertex="1" parent="WIyWlLk6GJQsqaUBKTNV-1">
          <mxGeometry x="721" y="1022" width="120" height="60" as="geometry" />
        </mxCell>
        <mxCell id="XLnG18G3E1F2Vg3VbiFq-33" value="" style="edgeStyle=none;curved=1;rounded=0;orthogonalLoop=1;jettySize=auto;html=1;fontSize=12;startSize=8;endSize=8;" edge="1" parent="WIyWlLk6GJQsqaUBKTNV-1" source="XLnG18G3E1F2Vg3VbiFq-30" target="XLnG18G3E1F2Vg3VbiFq-32">
          <mxGeometry relative="1" as="geometry" />
        </mxCell>
        <mxCell id="XLnG18G3E1F2Vg3VbiFq-38" value="" style="edgeStyle=none;curved=1;rounded=0;orthogonalLoop=1;jettySize=auto;html=1;fontSize=12;startSize=8;endSize=8;" edge="1" parent="WIyWlLk6GJQsqaUBKTNV-1" source="XLnG18G3E1F2Vg3VbiFq-30" target="XLnG18G3E1F2Vg3VbiFq-37">
          <mxGeometry relative="1" as="geometry" />
        </mxCell>
        <mxCell id="XLnG18G3E1F2Vg3VbiFq-30" value="赠金流水是否存在" style="rhombus;whiteSpace=wrap;html=1;rounded=1;" vertex="1" parent="WIyWlLk6GJQsqaUBKTNV-1">
          <mxGeometry x="301" y="1212" width="80" height="80" as="geometry" />
        </mxCell>
        <mxCell id="XLnG18G3E1F2Vg3VbiFq-36" value="" style="edgeStyle=none;curved=1;rounded=0;orthogonalLoop=1;jettySize=auto;html=1;fontSize=12;startSize=8;endSize=8;" edge="1" parent="WIyWlLk6GJQsqaUBKTNV-1" source="XLnG18G3E1F2Vg3VbiFq-32" target="XLnG18G3E1F2Vg3VbiFq-35">
          <mxGeometry relative="1" as="geometry" />
        </mxCell>
        <mxCell id="XLnG18G3E1F2Vg3VbiFq-32" value="提示已处理" style="whiteSpace=wrap;html=1;rounded=1;" vertex="1" parent="WIyWlLk6GJQsqaUBKTNV-1">
          <mxGeometry x="481" y="1222" width="120" height="60" as="geometry" />
        </mxCell>
        <mxCell id="XLnG18G3E1F2Vg3VbiFq-34" value="是" style="text;html=1;align=center;verticalAlign=middle;resizable=0;points=[];autosize=1;strokeColor=none;fillColor=none;fontSize=16;" vertex="1" parent="WIyWlLk6GJQsqaUBKTNV-1">
          <mxGeometry x="410.5" y="1217.5" width="34" height="31" as="geometry" />
        </mxCell>
        <mxCell id="XLnG18G3E1F2Vg3VbiFq-35" value="结束" style="whiteSpace=wrap;html=1;rounded=1;" vertex="1" parent="WIyWlLk6GJQsqaUBKTNV-1">
          <mxGeometry x="721" y="1222" width="120" height="60" as="geometry" />
        </mxCell>
        <mxCell id="XLnG18G3E1F2Vg3VbiFq-40" value="" style="edgeStyle=none;curved=1;rounded=0;orthogonalLoop=1;jettySize=auto;html=1;fontSize=12;startSize=8;endSize=8;" edge="1" parent="WIyWlLk6GJQsqaUBKTNV-1" source="XLnG18G3E1F2Vg3VbiFq-37" target="XLnG18G3E1F2Vg3VbiFq-39">
          <mxGeometry relative="1" as="geometry" />
        </mxCell>
        <mxCell id="XLnG18G3E1F2Vg3VbiFq-37" value="计算赠金值" style="whiteSpace=wrap;html=1;rounded=1;" vertex="1" parent="WIyWlLk6GJQsqaUBKTNV-1">
          <mxGeometry x="281" y="1422" width="120" height="60" as="geometry" />
        </mxCell>
        <mxCell id="XLnG18G3E1F2Vg3VbiFq-42" value="" style="edgeStyle=none;curved=1;rounded=0;orthogonalLoop=1;jettySize=auto;html=1;fontSize=12;startSize=8;endSize=8;" edge="1" parent="WIyWlLk6GJQsqaUBKTNV-1" source="XLnG18G3E1F2Vg3VbiFq-39" target="XLnG18G3E1F2Vg3VbiFq-41">
          <mxGeometry relative="1" as="geometry" />
        </mxCell>
        <mxCell id="XLnG18G3E1F2Vg3VbiFq-47" value="" style="edgeStyle=none;curved=1;rounded=0;orthogonalLoop=1;jettySize=auto;html=1;fontSize=12;startSize=8;endSize=8;" edge="1" parent="WIyWlLk6GJQsqaUBKTNV-1" source="XLnG18G3E1F2Vg3VbiFq-39" target="XLnG18G3E1F2Vg3VbiFq-46">
          <mxGeometry relative="1" as="geometry" />
        </mxCell>
        <mxCell id="XLnG18G3E1F2Vg3VbiFq-39" value="赠金是否超限" style="rhombus;whiteSpace=wrap;html=1;rounded=1;" vertex="1" parent="WIyWlLk6GJQsqaUBKTNV-1">
          <mxGeometry x="301" y="1592" width="80" height="80" as="geometry" />
        </mxCell>
        <mxCell id="XLnG18G3E1F2Vg3VbiFq-45" value="" style="edgeStyle=none;curved=1;rounded=0;orthogonalLoop=1;jettySize=auto;html=1;fontSize=12;startSize=8;endSize=8;" edge="1" parent="WIyWlLk6GJQsqaUBKTNV-1" source="XLnG18G3E1F2Vg3VbiFq-41" target="XLnG18G3E1F2Vg3VbiFq-44">
          <mxGeometry relative="1" as="geometry" />
        </mxCell>
        <mxCell id="XLnG18G3E1F2Vg3VbiFq-41" value="提示赠金超限" style="whiteSpace=wrap;html=1;rounded=1;" vertex="1" parent="WIyWlLk6GJQsqaUBKTNV-1">
          <mxGeometry x="481" y="1602" width="120" height="60" as="geometry" />
        </mxCell>
        <mxCell id="XLnG18G3E1F2Vg3VbiFq-43" value="是" style="text;html=1;align=center;verticalAlign=middle;resizable=0;points=[];autosize=1;strokeColor=none;fillColor=none;fontSize=16;" vertex="1" parent="WIyWlLk6GJQsqaUBKTNV-1">
          <mxGeometry x="408.5" y="1601.5" width="34" height="31" as="geometry" />
        </mxCell>
        <mxCell id="XLnG18G3E1F2Vg3VbiFq-44" value="结束" style="whiteSpace=wrap;html=1;rounded=1;" vertex="1" parent="WIyWlLk6GJQsqaUBKTNV-1">
          <mxGeometry x="721" y="1602" width="120" height="60" as="geometry" />
        </mxCell>
        <mxCell id="XLnG18G3E1F2Vg3VbiFq-49" value="" style="edgeStyle=none;curved=1;rounded=0;orthogonalLoop=1;jettySize=auto;html=1;fontSize=12;startSize=8;endSize=8;" edge="1" parent="WIyWlLk6GJQsqaUBKTNV-1" source="XLnG18G3E1F2Vg3VbiFq-46" target="XLnG18G3E1F2Vg3VbiFq-48">
          <mxGeometry relative="1" as="geometry" />
        </mxCell>
        <mxCell id="XLnG18G3E1F2Vg3VbiFq-46" value="赠金冻结&lt;div&gt;赠金记录&lt;/div&gt;" style="whiteSpace=wrap;html=1;rounded=1;" vertex="1" parent="WIyWlLk6GJQsqaUBKTNV-1">
          <mxGeometry x="281" y="1802" width="120" height="60" as="geometry" />
        </mxCell>
        <mxCell id="XLnG18G3E1F2Vg3VbiFq-48" value="结束" style="whiteSpace=wrap;html=1;rounded=1;" vertex="1" parent="WIyWlLk6GJQsqaUBKTNV-1">
          <mxGeometry x="281" y="1982" width="120" height="60" as="geometry" />
        </mxCell>
      </root>
    </mxGraphModel>
  </diagram>
  <diagram name="Page-1 的副本" id="obQoFZ3usw5kJ7wpjsTk">
    <mxGraphModel dx="954" dy="656" grid="0" gridSize="10" guides="1" tooltips="1" connect="1" arrows="1" fold="1" page="1" pageScale="1" pageWidth="3300" pageHeight="4681" math="0" shadow="0">
      <root>
        <mxCell id="Edbb1GL4DGoRVhIL2E0i-0" />
        <mxCell id="Edbb1GL4DGoRVhIL2E0i-1" parent="Edbb1GL4DGoRVhIL2E0i-0" />
        <mxCell id="Edbb1GL4DGoRVhIL2E0i-2" value="" style="edgeStyle=none;curved=1;rounded=0;orthogonalLoop=1;jettySize=auto;html=1;fontSize=12;startSize=8;endSize=8;" edge="1" parent="Edbb1GL4DGoRVhIL2E0i-1" source="Edbb1GL4DGoRVhIL2E0i-3" target="Edbb1GL4DGoRVhIL2E0i-5">
          <mxGeometry relative="1" as="geometry" />
        </mxCell>
        <mxCell id="Edbb1GL4DGoRVhIL2E0i-3" value="开始" style="rounded=1;whiteSpace=wrap;html=1;" vertex="1" parent="Edbb1GL4DGoRVhIL2E0i-1">
          <mxGeometry x="281" y="82" width="120" height="60" as="geometry" />
        </mxCell>
        <mxCell id="Edbb1GL4DGoRVhIL2E0i-4" value="" style="edgeStyle=none;curved=1;rounded=0;orthogonalLoop=1;jettySize=auto;html=1;fontSize=12;startSize=8;endSize=8;" edge="1" parent="Edbb1GL4DGoRVhIL2E0i-1" source="Edbb1GL4DGoRVhIL2E0i-5" target="Edbb1GL4DGoRVhIL2E0i-8">
          <mxGeometry relative="1" as="geometry" />
        </mxCell>
        <mxCell id="Edbb1GL4DGoRVhIL2E0i-5" value="查询合约狂欢派对活动" style="whiteSpace=wrap;html=1;rounded=1;" vertex="1" parent="Edbb1GL4DGoRVhIL2E0i-1">
          <mxGeometry x="281" y="262" width="120" height="60" as="geometry" />
        </mxCell>
        <mxCell id="Edbb1GL4DGoRVhIL2E0i-6" value="" style="edgeStyle=none;curved=1;rounded=0;orthogonalLoop=1;jettySize=auto;html=1;fontSize=12;startSize=8;endSize=8;" edge="1" parent="Edbb1GL4DGoRVhIL2E0i-1" source="Edbb1GL4DGoRVhIL2E0i-8" target="Edbb1GL4DGoRVhIL2E0i-10">
          <mxGeometry relative="1" as="geometry" />
        </mxCell>
        <mxCell id="Edbb1GL4DGoRVhIL2E0i-7" value="" style="edgeStyle=none;curved=1;rounded=0;orthogonalLoop=1;jettySize=auto;html=1;fontSize=12;startSize=8;endSize=8;" edge="1" parent="Edbb1GL4DGoRVhIL2E0i-1" source="Edbb1GL4DGoRVhIL2E0i-8" target="Edbb1GL4DGoRVhIL2E0i-14">
          <mxGeometry relative="1" as="geometry" />
        </mxCell>
        <mxCell id="Edbb1GL4DGoRVhIL2E0i-8" value="是否存在" style="rhombus;whiteSpace=wrap;html=1;rounded=1;" vertex="1" parent="Edbb1GL4DGoRVhIL2E0i-1">
          <mxGeometry x="301" y="432" width="80" height="80" as="geometry" />
        </mxCell>
        <mxCell id="Edbb1GL4DGoRVhIL2E0i-9" value="" style="edgeStyle=none;curved=1;rounded=0;orthogonalLoop=1;jettySize=auto;html=1;fontSize=12;startSize=8;endSize=8;" edge="1" parent="Edbb1GL4DGoRVhIL2E0i-1" source="Edbb1GL4DGoRVhIL2E0i-10" target="Edbb1GL4DGoRVhIL2E0i-12">
          <mxGeometry relative="1" as="geometry" />
        </mxCell>
        <mxCell id="Edbb1GL4DGoRVhIL2E0i-10" value="执行合约狂欢月活动" style="whiteSpace=wrap;html=1;rounded=1;" vertex="1" parent="Edbb1GL4DGoRVhIL2E0i-1">
          <mxGeometry x="481" y="442" width="120" height="60" as="geometry" />
        </mxCell>
        <mxCell id="Edbb1GL4DGoRVhIL2E0i-11" value="否" style="text;html=1;align=center;verticalAlign=middle;resizable=0;points=[];autosize=1;strokeColor=none;fillColor=none;fontSize=16;" vertex="1" parent="Edbb1GL4DGoRVhIL2E0i-1">
          <mxGeometry x="409.5" y="442.5" width="34" height="31" as="geometry" />
        </mxCell>
        <mxCell id="Edbb1GL4DGoRVhIL2E0i-12" value="结束" style="whiteSpace=wrap;html=1;rounded=1;" vertex="1" parent="Edbb1GL4DGoRVhIL2E0i-1">
          <mxGeometry x="721" y="442" width="120" height="60" as="geometry" />
        </mxCell>
        <mxCell id="Edbb1GL4DGoRVhIL2E0i-13" value="" style="edgeStyle=none;curved=1;rounded=0;orthogonalLoop=1;jettySize=auto;html=1;fontSize=12;startSize=8;endSize=8;" edge="1" parent="Edbb1GL4DGoRVhIL2E0i-1" source="Edbb1GL4DGoRVhIL2E0i-14" target="Edbb1GL4DGoRVhIL2E0i-17">
          <mxGeometry relative="1" as="geometry" />
        </mxCell>
        <mxCell id="Edbb1GL4DGoRVhIL2E0i-14" value="查询用户参与的活动" style="whiteSpace=wrap;html=1;rounded=1;" vertex="1" parent="Edbb1GL4DGoRVhIL2E0i-1">
          <mxGeometry x="281" y="642" width="120" height="60" as="geometry" />
        </mxCell>
        <mxCell id="Edbb1GL4DGoRVhIL2E0i-15" value="" style="edgeStyle=none;curved=1;rounded=0;orthogonalLoop=1;jettySize=auto;html=1;fontSize=12;startSize=8;endSize=8;" edge="1" parent="Edbb1GL4DGoRVhIL2E0i-1" source="Edbb1GL4DGoRVhIL2E0i-17" target="Edbb1GL4DGoRVhIL2E0i-19">
          <mxGeometry relative="1" as="geometry" />
        </mxCell>
        <mxCell id="Edbb1GL4DGoRVhIL2E0i-16" value="" style="edgeStyle=none;curved=1;rounded=0;orthogonalLoop=1;jettySize=auto;html=1;fontSize=12;startSize=8;endSize=8;" edge="1" parent="Edbb1GL4DGoRVhIL2E0i-1" source="Edbb1GL4DGoRVhIL2E0i-17" target="Edbb1GL4DGoRVhIL2E0i-24">
          <mxGeometry relative="1" as="geometry" />
        </mxCell>
        <mxCell id="Edbb1GL4DGoRVhIL2E0i-17" value="是否存在" style="rhombus;whiteSpace=wrap;html=1;rounded=1;" vertex="1" parent="Edbb1GL4DGoRVhIL2E0i-1">
          <mxGeometry x="301" y="812" width="80" height="80" as="geometry" />
        </mxCell>
        <mxCell id="Edbb1GL4DGoRVhIL2E0i-18" value="" style="edgeStyle=none;curved=1;rounded=0;orthogonalLoop=1;jettySize=auto;html=1;fontSize=12;startSize=8;endSize=8;" edge="1" parent="Edbb1GL4DGoRVhIL2E0i-1" source="Edbb1GL4DGoRVhIL2E0i-19" target="Edbb1GL4DGoRVhIL2E0i-21">
          <mxGeometry relative="1" as="geometry" />
        </mxCell>
        <mxCell id="Edbb1GL4DGoRVhIL2E0i-19" value="提示用户不在白名单里" style="whiteSpace=wrap;html=1;rounded=1;" vertex="1" parent="Edbb1GL4DGoRVhIL2E0i-1">
          <mxGeometry x="481" y="822" width="120" height="60" as="geometry" />
        </mxCell>
        <mxCell id="Edbb1GL4DGoRVhIL2E0i-20" value="否" style="text;html=1;align=center;verticalAlign=middle;resizable=0;points=[];autosize=1;strokeColor=none;fillColor=none;fontSize=16;" vertex="1" parent="Edbb1GL4DGoRVhIL2E0i-1">
          <mxGeometry x="392.5" y="823.5" width="34" height="31" as="geometry" />
        </mxCell>
        <mxCell id="Edbb1GL4DGoRVhIL2E0i-21" value="结束" style="whiteSpace=wrap;html=1;rounded=1;" vertex="1" parent="Edbb1GL4DGoRVhIL2E0i-1">
          <mxGeometry x="721" y="822" width="120" height="60" as="geometry" />
        </mxCell>
        <mxCell id="Edbb1GL4DGoRVhIL2E0i-22" value="" style="edgeStyle=none;curved=1;rounded=0;orthogonalLoop=1;jettySize=auto;html=1;fontSize=12;startSize=8;endSize=8;" edge="1" parent="Edbb1GL4DGoRVhIL2E0i-1" source="Edbb1GL4DGoRVhIL2E0i-24" target="Edbb1GL4DGoRVhIL2E0i-26">
          <mxGeometry relative="1" as="geometry" />
        </mxCell>
        <mxCell id="Edbb1GL4DGoRVhIL2E0i-23" value="" style="edgeStyle=none;curved=1;rounded=0;orthogonalLoop=1;jettySize=auto;html=1;fontSize=12;startSize=8;endSize=8;" edge="1" parent="Edbb1GL4DGoRVhIL2E0i-1" source="Edbb1GL4DGoRVhIL2E0i-24" target="Edbb1GL4DGoRVhIL2E0i-31">
          <mxGeometry relative="1" as="geometry" />
        </mxCell>
        <mxCell id="Edbb1GL4DGoRVhIL2E0i-24" value="活动是否进行中" style="rhombus;whiteSpace=wrap;html=1;rounded=1;" vertex="1" parent="Edbb1GL4DGoRVhIL2E0i-1">
          <mxGeometry x="301" y="1012" width="80" height="80" as="geometry" />
        </mxCell>
        <mxCell id="Edbb1GL4DGoRVhIL2E0i-25" value="" style="edgeStyle=none;curved=1;rounded=0;orthogonalLoop=1;jettySize=auto;html=1;fontSize=12;startSize=8;endSize=8;" edge="1" parent="Edbb1GL4DGoRVhIL2E0i-1" source="Edbb1GL4DGoRVhIL2E0i-26" target="Edbb1GL4DGoRVhIL2E0i-28">
          <mxGeometry relative="1" as="geometry" />
        </mxCell>
        <mxCell id="Edbb1GL4DGoRVhIL2E0i-26" value="提示活动不在有效期" style="whiteSpace=wrap;html=1;rounded=1;" vertex="1" parent="Edbb1GL4DGoRVhIL2E0i-1">
          <mxGeometry x="481" y="1022" width="120" height="60" as="geometry" />
        </mxCell>
        <mxCell id="Edbb1GL4DGoRVhIL2E0i-27" value="否" style="text;html=1;align=center;verticalAlign=middle;resizable=0;points=[];autosize=1;strokeColor=none;fillColor=none;fontSize=16;" vertex="1" parent="Edbb1GL4DGoRVhIL2E0i-1">
          <mxGeometry x="398.5" y="1018.5" width="34" height="31" as="geometry" />
        </mxCell>
        <mxCell id="Edbb1GL4DGoRVhIL2E0i-28" value="结束" style="whiteSpace=wrap;html=1;rounded=1;" vertex="1" parent="Edbb1GL4DGoRVhIL2E0i-1">
          <mxGeometry x="721" y="1022" width="120" height="60" as="geometry" />
        </mxCell>
        <mxCell id="Edbb1GL4DGoRVhIL2E0i-29" value="" style="edgeStyle=none;curved=1;rounded=0;orthogonalLoop=1;jettySize=auto;html=1;fontSize=12;startSize=8;endSize=8;" edge="1" parent="Edbb1GL4DGoRVhIL2E0i-1" source="Edbb1GL4DGoRVhIL2E0i-31" target="Edbb1GL4DGoRVhIL2E0i-33">
          <mxGeometry relative="1" as="geometry" />
        </mxCell>
        <mxCell id="Edbb1GL4DGoRVhIL2E0i-31" value="赠金流水是已完成" style="rhombus;whiteSpace=wrap;html=1;rounded=1;" vertex="1" parent="Edbb1GL4DGoRVhIL2E0i-1">
          <mxGeometry x="301" y="1212" width="80" height="80" as="geometry" />
        </mxCell>
        <mxCell id="Edbb1GL4DGoRVhIL2E0i-32" value="" style="edgeStyle=none;curved=1;rounded=0;orthogonalLoop=1;jettySize=auto;html=1;fontSize=12;startSize=8;endSize=8;" edge="1" parent="Edbb1GL4DGoRVhIL2E0i-1" source="Edbb1GL4DGoRVhIL2E0i-33" target="Edbb1GL4DGoRVhIL2E0i-35">
          <mxGeometry relative="1" as="geometry" />
        </mxCell>
        <mxCell id="Edbb1GL4DGoRVhIL2E0i-33" value="提示已完成" style="whiteSpace=wrap;html=1;rounded=1;" vertex="1" parent="Edbb1GL4DGoRVhIL2E0i-1">
          <mxGeometry x="481" y="1222" width="120" height="60" as="geometry" />
        </mxCell>
        <mxCell id="Edbb1GL4DGoRVhIL2E0i-34" value="是" style="text;html=1;align=center;verticalAlign=middle;resizable=0;points=[];autosize=1;strokeColor=none;fillColor=none;fontSize=16;" vertex="1" parent="Edbb1GL4DGoRVhIL2E0i-1">
          <mxGeometry x="410.5" y="1217.5" width="34" height="31" as="geometry" />
        </mxCell>
        <mxCell id="Edbb1GL4DGoRVhIL2E0i-35" value="结束" style="whiteSpace=wrap;html=1;rounded=1;" vertex="1" parent="Edbb1GL4DGoRVhIL2E0i-1">
          <mxGeometry x="721" y="1222" width="120" height="60" as="geometry" />
        </mxCell>
        <mxCell id="Edbb1GL4DGoRVhIL2E0i-39" value="" style="edgeStyle=none;curved=1;rounded=0;orthogonalLoop=1;jettySize=auto;html=1;fontSize=12;startSize=8;endSize=8;" edge="1" parent="Edbb1GL4DGoRVhIL2E0i-1" target="Edbb1GL4DGoRVhIL2E0i-46">
          <mxGeometry relative="1" as="geometry">
            <mxPoint x="341" y="1288" as="sourcePoint" />
          </mxGeometry>
        </mxCell>
        <mxCell id="Edbb1GL4DGoRVhIL2E0i-45" value="" style="edgeStyle=none;curved=1;rounded=0;orthogonalLoop=1;jettySize=auto;html=1;fontSize=12;startSize=8;endSize=8;" edge="1" parent="Edbb1GL4DGoRVhIL2E0i-1" source="Edbb1GL4DGoRVhIL2E0i-46" target="Edbb1GL4DGoRVhIL2E0i-47">
          <mxGeometry relative="1" as="geometry" />
        </mxCell>
        <mxCell id="Edbb1GL4DGoRVhIL2E0i-46" value="&lt;div&gt;赠金解冻&lt;/div&gt;&lt;div&gt;赠金记录完成&lt;/div&gt;" style="whiteSpace=wrap;html=1;rounded=1;" vertex="1" parent="Edbb1GL4DGoRVhIL2E0i-1">
          <mxGeometry x="281" y="1418" width="120" height="60" as="geometry" />
        </mxCell>
        <mxCell id="Edbb1GL4DGoRVhIL2E0i-47" value="结束" style="whiteSpace=wrap;html=1;rounded=1;" vertex="1" parent="Edbb1GL4DGoRVhIL2E0i-1">
          <mxGeometry x="281" y="1598" width="120" height="60" as="geometry" />
        </mxCell>
      </root>
    </mxGraphModel>
  </diagram>
</mxfile>
